<svg width="17" height="17" viewBox="0 0 17 17" fill="none" xmlns="http://www.w3.org/2000/svg">
<path d="M3.87155 2.16772V2.1675C3.87155 1.72614 3.695 1.303 3.37955 0.990103C3.06279 0.676739 2.63344 0.5 2.18535 0.5H2.18513C1.73827 0.499804 1.30939 0.676022 0.991759 0.990338L3.87155 2.16772ZM3.87155 2.16772C3.87165 2.38644 3.82827 2.60301 3.74394 2.80482C3.65961 3.00663 3.536 3.18967 3.38031 3.3433L3.38031 3.34329M3.87155 2.16772L3.38031 3.34329M3.38031 3.34329L3.37904 3.34456M3.38031 3.34329L3.37904 3.34456M3.37904 3.34456C3.06196 3.65969 2.63276 3.83609 2.18571 3.835L2.18484 3.835M3.37904 3.34456L2.18484 3.835M2.18484 3.835C1.73797 3.8347 1.30917 3.65862 0.991056 3.34481M2.18484 3.835L0.991056 3.34481M0.991056 3.34481C0.835869 3.19045 0.712622 3.00702 0.628362 2.805C0.544054 2.60286 0.500435 2.38608 0.5 2.16707C0.500115 1.72536 0.676152 1.30268 0.991747 0.990351L0.991056 3.34481ZM16.5 10.8826V16.5H14.1V11.6348C14.1 10.672 13.9867 9.83811 13.6722 9.22904C13.5104 8.91588 13.2892 8.64991 12.9936 8.46451C12.6967 8.27833 12.356 8.19295 11.9876 8.19295C11.0508 8.19295 10.3194 8.53569 9.84319 9.19718C9.3879 9.82963 9.21465 10.6872 9.21465 11.634V16.5H6.81465V6.42365H8.97155V7.49615L9.91826 7.72076C10.2732 7.01489 11.2458 6.27915 12.8444 6.27915C14.4368 6.27915 15.2864 6.70213 15.7753 7.38365C16.2955 8.10881 16.5 9.2428 16.5 10.8826ZM3.3845 6.27915V16.3555H0.9845V6.27915H3.3845Z" fill="#1A73E8" stroke="#1A73E8"/>
</svg>
