<svg width="18" height="18" viewBox="0 0 18 18" fill="none" xmlns="http://www.w3.org/2000/svg">
<path d="M5.129 0.55225C4.25645 0.593478 3.67994 0.731108 3.1841 0.923069L3.17992 0.924687L3.17991 0.924668C2.66722 1.11788 2.20283 1.42056 1.81908 1.81162L1.81244 1.81839L1.81238 1.81832C1.42102 2.2023 1.11807 2.66697 0.92464 3.17998L0.923087 3.18411L0.923069 3.1841C0.730186 3.68232 0.59153 4.2616 0.55174 5.1415C0.510289 6.05811 0.5 6.34541 0.5 8.70833C0.5 11.0708 0.509507 11.3578 0.551718 12.2763L5.129 0.55225ZM5.129 0.55225H5.12963L5.14112 0.551721C6.05808 0.509508 6.34502 0.5 8.70833 0.5C11.0713 0.5 11.3586 0.510289 12.2752 0.55174C13.1551 0.59153 13.7343 0.730186 14.2326 0.923069L14.2326 0.923084L14.2363 0.924509C14.749 1.11825 15.214 1.42106 15.5985 1.81256L15.5985 1.81263L15.6052 1.81925C15.9963 2.20268 16.2981 2.66649 16.4911 3.17956L16.491 3.17957L16.493 3.18468C16.6864 3.68228 16.8244 4.26138 16.8649 5.14029C16.8649 5.14032 16.8649 5.14035 16.8649 5.14039L17.3644 5.11733M5.129 0.55225L0.551723 12.2764C0.592294 13.1552 0.730281 13.7346 0.923069 14.2326L0.924744 14.2369L0.924724 14.2369C1.11785 14.7498 1.42054 15.2145 1.81167 15.5984L1.81802 15.6047L1.81796 15.6047C2.2023 15.9956 2.66722 16.2981 3.18036 16.4911L3.18548 16.493L3.18547 16.493C3.68336 16.6865 4.26241 16.8251 5.14069 16.8649C5.14071 16.8649 5.14073 16.8649 5.14075 16.8649L5.11812 17.3644M17.3644 5.11733C17.4072 6.04754 17.4167 6.34362 17.4167 8.70833C17.4167 11.0738 17.4064 11.3699 17.3644 12.2985M17.3644 5.11733C17.3217 4.19108 17.1744 3.55775 16.9591 3.00358L17.3644 5.11733ZM17.3644 12.2985L16.8649 12.2759C16.8649 12.2759 16.8649 12.276 16.8649 12.276C16.8251 13.1543 16.6865 13.7333 16.493 14.2312L16.493 14.2312L16.4911 14.2363C16.2981 14.7495 15.9957 15.2144 15.6047 15.5987L15.6047 15.5986L15.5985 15.6049C15.2143 15.9962 14.7495 16.2981 14.2369 16.4912L14.2369 16.4911L14.232 16.493C13.7344 16.6864 13.1553 16.8244 12.2764 16.8649C12.2763 16.8649 12.2763 16.8649 12.2763 16.8649L12.2993 17.3644M17.3644 12.2985C17.3225 13.2248 17.1744 13.8581 16.9591 14.4123L17.3644 12.2985ZM12.2993 17.3644C11.3699 17.4072 11.0738 17.4167 8.70833 17.4167C6.34283 17.4167 6.04675 17.4064 5.11812 17.3644M12.2993 17.3644C13.2256 17.3217 13.8589 17.1744 14.4131 16.9591L12.2993 17.3644ZM5.11812 17.3644C4.19187 17.3225 3.55854 17.1744 3.00437 16.9591M5.11812 17.3644L3.00437 16.9591M3.00437 16.9591C2.42323 16.7406 1.89669 16.398 1.46142 15.9552C1.01838 15.5204 0.675541 14.9941 0.456792 14.4131C0.24225 13.8589 0.095 13.2256 0.05225 12.2993C0.00949999 11.3691 0 11.073 0 8.70833C0 6.34283 0.0102917 6.04675 0.05225 5.11892L3.00437 16.9591ZM5.16656 1.12027C4.26207 1.16158 3.74782 1.31484 3.39066 1.45383L3.39038 1.45394C2.92275 1.63626 2.57371 1.86083 2.2194 2.21458C1.87929 2.54618 1.61724 2.94931 1.45225 3.39474C1.31367 3.75174 1.16142 4.2655 1.12027 5.16655M5.16656 1.12027L5.18937 1.61975L5.16656 1.12027ZM5.16656 1.12027C6.09653 1.07778 6.38114 1.06908 8.70833 1.06908C11.0355 1.06908 11.3201 1.07778 12.2501 1.12027C13.1512 1.16142 13.6649 1.31367 14.0219 1.45225C14.4673 1.61726 14.8704 1.8793 15.2021 2.21937C15.5558 2.57369 15.7804 2.92274 15.9627 3.39038L15.9628 3.39066C16.1018 3.74782 16.2551 4.26208 16.2964 5.16655C16.3389 6.09652 16.3476 6.38114 16.3476 8.70833C16.3476 11.0355 16.3389 11.3201 16.2964 12.2501C16.2552 13.1512 16.103 13.665 15.9644 14.022C15.7996 14.4666 15.5376 14.8704 15.1973 15.202C14.843 15.5558 14.4939 15.7804 14.0263 15.9627L14.026 15.9628C13.6688 16.1018 13.1546 16.2551 12.2501 16.2964C11.3201 16.3389 11.0363 16.3476 8.70833 16.3476C6.38035 16.3476 6.09652 16.3389 5.16656 16.2964C4.26551 16.2552 3.75174 16.103 3.39474 15.9644C2.95113 15.8 2.54821 15.5388 2.21696 15.1997C1.87787 14.8685 1.61665 14.4656 1.45226 14.022C1.31368 13.665 1.16142 13.1512 1.12027 12.2501C1.07778 11.3201 1.06908 11.0355 1.06908 8.70833C1.06908 6.38114 1.07778 6.09652 1.12027 5.16655M1.12027 5.16655L1.61975 5.18937M1.12027 5.16655L1.61975 5.18937M1.61975 5.18937C1.65854 4.33992 1.80025 3.87917 1.91979 3.572V13.8447C1.80025 13.5375 1.65854 13.0767 1.61975 12.2273C1.57779 11.309 1.56908 11.0335 1.56908 8.70833C1.56908 6.38321 1.57779 6.10771 1.61975 5.18937ZM7.40452 11.8547C8.13248 12.1576 8.94299 12.1984 9.6977 11.9702C10.4526 11.7419 11.1049 11.2587 11.5431 10.6029C11.9813 9.94715 12.1782 9.15961 12.1003 8.37479C12.0223 7.59007 11.6744 6.85675 11.1159 6.30004C10.7599 5.94429 10.3294 5.67189 9.85544 5.50243C9.38139 5.33293 8.87565 5.27065 8.37465 5.32007C7.87364 5.36948 7.38982 5.52937 6.95802 5.78821C6.52622 6.04705 6.15718 6.39842 5.87747 6.817C5.59776 7.23558 5.41434 7.71098 5.34041 8.20896C5.26648 8.70694 5.30388 9.21512 5.44993 9.69691C5.59597 10.1787 5.84702 10.6221 6.185 10.9952C6.52298 11.3684 6.93948 11.6619 7.40452 11.8547ZM5.8968 5.8968C6.26602 5.52759 6.70434 5.23471 7.18674 5.03489C7.66915 4.83507 8.18618 4.73223 8.70833 4.73223C9.23048 4.73223 9.74752 4.83507 10.2299 5.03489C10.7123 5.23471 11.1506 5.52759 11.5199 5.8968C11.8891 6.26602 12.182 6.70434 12.3818 7.18674C12.5816 7.66915 12.6844 8.18618 12.6844 8.70833C12.6844 9.23048 12.5816 9.74752 12.3818 10.2299C12.182 10.7123 11.8891 11.1506 11.5199 11.5199C10.7742 12.2655 9.76286 12.6844 8.70833 12.6844C7.6538 12.6844 6.64247 12.2655 5.8968 11.5199C5.15114 10.7742 4.73223 9.76286 4.73223 8.70833C4.73223 7.6538 5.15114 6.64247 5.8968 5.8968ZM13.962 4.35383C13.9319 4.42221 13.8884 4.48386 13.8341 4.53513C13.7284 4.63482 13.588 4.68941 13.4427 4.68729C13.2974 4.68517 13.1587 4.62652 13.056 4.52378C12.9532 4.42104 12.8946 4.28231 12.8925 4.13703C12.8903 3.99175 12.9449 3.85137 13.0446 3.74568C13.0959 3.69134 13.1575 3.64783 13.2259 3.61774C13.2943 3.58765 13.368 3.57158 13.4427 3.57049C13.5174 3.5694 13.5916 3.58331 13.6608 3.6114C13.73 3.63948 13.7929 3.68117 13.8457 3.734C13.8986 3.78683 13.9403 3.84972 13.9684 3.91894C13.9964 3.98817 14.0103 4.06233 14.0093 4.13703C14.0082 4.21173 13.9921 4.28545 13.962 4.35383Z" fill="#1A73E8" stroke="#1A73E8"/>
</svg>
