<svg width="253" height="63" viewBox="0 0 253 63" fill="none" xmlns="http://www.w3.org/2000/svg">
<g clip-path="url(#clip0_2802_20873)">
<path d="M48.0004 13.8143L41.6316 17.9257C40.3188 16.6465 37.7976 14.522 34.012 13.1596C33.6917 13.0447 33.376 12.9388 33.0633 12.8436C27.7595 11.2105 21.9888 11.9787 17.2621 14.8864C17.2304 14.9061 17.1986 14.9257 17.1669 14.9454C16.6563 15.2629 16.1759 15.5926 15.7227 15.9282C10.9552 19.4726 8.06989 25.0326 8.00191 30.9766C8.00191 31.0144 8.0004 31.0537 8.0004 31.0931C7.97774 34.778 8.9234 37.6586 9.60771 39.3158C10.2845 40.8975 11.6863 43.592 14.4296 46.0477C16.6019 47.9938 18.7893 49.0507 20.2622 49.6223C21.8378 50.2422 27.0147 52.0522 33.1781 50.1591C38.1345 48.6364 41.1089 45.523 42.2857 44.1409C43.3295 42.9585 46.8614 38.6671 47.0472 32.1651C47.2028 26.7412 44.9429 22.8219 44.0108 21.3809C44.6649 19.772 45.3205 18.1631 45.9747 16.5543L26.7504 43.7236L14.9055 24.0618L27.1084 31.4499L48.0004 13.8143Z" fill="#1A73E8"/>
</g>
<path d="M71.62 39.78C68.848 39.78 66.216 38.716 64.284 36.924C63.332 36.028 62.576 34.908 61.988 33.592C61.428 32.276 61.12 30.848 61.12 29.308C61.12 27.824 61.428 26.424 61.988 25.08C62.576 23.792 63.36 22.672 64.312 21.748C65.264 20.824 66.412 20.096 67.7 19.564C68.988 19.06 70.332 18.78 71.732 18.78C73.944 18.78 75.96 19.396 77.36 20.32C78.06 20.74 78.676 21.272 79.208 21.86C80.3 23.036 80.916 24.212 81.224 25.388L77.22 26.76C77.052 25.976 76.324 24.772 75.064 23.876C74.252 23.316 73.02 22.896 71.676 22.896C70.528 22.896 69.464 23.176 68.512 23.764C67.56 24.324 66.804 25.108 66.3 26.06C65.768 27.04 65.488 28.104 65.488 29.28C65.488 31.604 66.58 33.648 68.484 34.824C69.436 35.412 70.5 35.72 71.676 35.72C73.02 35.72 74.252 35.3 75.064 34.712C75.456 34.432 75.82 34.096 76.156 33.732C76.8 32.976 77.136 32.276 77.304 31.632L81.336 33.032C81.084 34.096 80.524 35.244 79.404 36.476C78.844 37.092 78.2 37.652 77.5 38.128C76.8 38.604 75.932 38.996 74.896 39.332C73.86 39.64 72.796 39.78 71.62 39.78ZM96.9357 39.5H92.8757V31.772C92.8757 30.176 92.0637 29.056 90.4677 29.056C89.6277 29.056 89.0117 29.308 88.5917 29.84C88.1717 30.372 87.9477 30.988 87.9477 31.744V39.5H83.8877V18.276H87.9477V27.208H87.9757C88.5357 26.452 89.3197 25.892 90.0757 25.64C90.8317 25.388 91.3637 25.304 91.8117 25.304C93.5197 25.304 94.8917 25.948 95.7037 27.012C96.5157 28.048 96.9357 29.364 96.9357 30.848V39.5ZM103.928 30.96H109.92C109.864 30.428 109.64 29.896 109.192 29.392C108.744 28.888 107.904 28.552 106.952 28.552C106.112 28.552 105.44 28.804 104.88 29.336C104.348 29.868 104.012 30.428 103.928 30.96ZM113.924 33.676H103.844C103.956 34.516 104.348 35.16 104.992 35.664C105.636 36.168 106.364 36.42 107.26 36.42C107.876 36.42 108.464 36.224 109.024 35.888C109.584 35.552 110.004 35.104 110.2 34.544L113.56 35.692C113.112 36.98 112.3 37.988 111.152 38.716C110.004 39.444 108.744 39.808 107.316 39.808C105.916 39.808 104.656 39.5 103.48 38.884C102.332 38.296 101.408 37.428 100.708 36.308C100.036 35.188 99.6721 33.928 99.6721 32.528C99.6721 31.212 100.008 29.98 100.68 28.86C101.352 27.74 102.248 26.872 103.396 26.2C104.516 25.556 105.748 25.248 107.064 25.248C109.136 25.248 110.788 25.892 112.076 27.18C113.364 28.468 114.008 30.148 114.008 32.22C114.008 32.864 113.98 33.34 113.924 33.676ZM123.556 39.808C119.244 39.864 115.968 36.644 116.052 32.556C116.052 31.212 116.388 29.98 117.06 28.86C117.704 27.74 118.628 26.872 119.776 26.2C120.952 25.584 122.24 25.248 123.64 25.248C125.124 25.248 126.608 25.668 127.84 26.452C129.1 27.208 130.052 28.468 130.416 30.008L126.692 31.128C126.524 30.54 126.16 30.036 125.628 29.616C125.068 29.196 124.396 29 123.556 29C122.632 29 121.848 29.308 121.204 29.952C120.56 30.596 120.224 31.436 120.224 32.5C120.224 33.536 120.532 34.404 121.176 35.048C121.792 35.72 122.576 36.056 123.584 36.056C125.236 36.056 126.356 35.104 126.776 33.9L130.5 35.02C130.22 36.056 129.716 36.924 128.988 37.68C128.232 38.408 127.42 38.94 126.496 39.276C125.544 39.64 124.564 39.808 123.556 39.808ZM142.261 39.5L137.333 32.92H137.221V39.5H133.161V18.248H137.221V31.044L142.065 25.584H147.245L141.645 31.996L147.385 39.5H142.261ZM168.362 39.5V25.584H168.306L162.538 39.5H159.71L153.97 25.668H153.942V39.5H149.798V19.088H155.51L161.138 32.668L166.654 19.088H172.506V39.5H168.362ZM182.038 46.36H177.698L181.086 38.016L175.234 25.584H179.714L183.186 33.536L186.294 25.584H190.494L182.038 46.36ZM199.94 39.808C197.56 39.808 195.712 39.248 194.34 38.128C192.968 37.008 192.1 35.468 191.764 33.48L195.712 32.556C195.88 33.62 196.356 34.488 197.168 35.104C197.98 35.72 198.932 36 200.08 36C201.032 36 201.788 35.804 202.32 35.356C202.88 34.908 203.16 34.348 203.16 33.704C203.16 32.696 202.264 31.828 200.836 31.576L197.952 30.988C196.3 30.68 194.956 29.98 193.976 28.972C192.996 27.936 192.52 26.648 192.52 25.136C192.52 23.344 193.36 21.692 194.648 20.572C195.964 19.48 197.812 18.78 199.744 18.78C201.984 18.78 203.888 19.452 205.064 20.488C206.24 21.58 206.912 22.84 207.108 24.212L203.272 25.332C202.908 23.652 201.732 22.56 199.688 22.56C198.848 22.56 198.148 22.784 197.56 23.232C197 23.68 196.72 24.212 196.72 24.8C196.72 25.836 197.42 26.648 198.82 26.928L201.676 27.46C203.524 27.796 204.952 28.496 205.96 29.588C206.94 30.68 207.444 31.968 207.444 33.452C207.444 35.048 206.744 36.588 205.54 37.82C204.28 39.024 202.292 39.808 199.94 39.808ZM210.741 22.504C210.237 22 210.013 21.44 210.013 20.74C210.013 20.04 210.237 19.424 210.741 18.92C211.245 18.444 211.833 18.192 212.505 18.192C213.205 18.192 213.821 18.444 214.325 18.92C214.801 19.424 215.053 20.04 215.053 20.74C215.053 21.44 214.801 22 214.325 22.504C213.821 23.008 213.205 23.26 212.505 23.26C211.833 23.26 211.245 23.008 210.741 22.504ZM210.489 25.584H214.577V39.5H210.489V25.584ZM227.213 29.112H223.769V34.376C223.769 35.496 224.413 36.168 225.757 36.168C226.065 36.168 226.541 36.14 227.185 36.056V39.36C226.513 39.584 225.701 39.696 224.749 39.696C221.389 39.696 219.709 37.988 219.709 34.6V29.112H217.021V25.584H219.793V21.216H223.769V25.584H227.213V29.112ZM233.237 30.96H239.229C239.173 30.428 238.949 29.896 238.501 29.392C238.053 28.888 237.213 28.552 236.261 28.552C235.421 28.552 234.749 28.804 234.189 29.336C233.657 29.868 233.321 30.428 233.237 30.96ZM243.233 33.676H233.153C233.265 34.516 233.657 35.16 234.301 35.664C234.945 36.168 235.673 36.42 236.569 36.42C237.185 36.42 237.773 36.224 238.333 35.888C238.893 35.552 239.313 35.104 239.509 34.544L242.869 35.692C242.421 36.98 241.609 37.988 240.461 38.716C239.313 39.444 238.053 39.808 236.625 39.808C235.225 39.808 233.965 39.5 232.789 38.884C231.641 38.296 230.717 37.428 230.017 36.308C229.345 35.188 228.981 33.928 228.981 32.528C228.981 31.212 229.317 29.98 229.989 28.86C230.661 27.74 231.557 26.872 232.705 26.2C233.825 25.556 235.057 25.248 236.373 25.248C238.445 25.248 240.097 25.892 241.385 27.18C242.673 28.468 243.317 30.148 243.317 32.22C243.317 32.864 243.289 33.34 243.233 33.676Z" fill="#1A73E8"/>
<defs>
<clipPath id="clip0_2802_20873">
<rect width="40" height="39" fill="white" transform="translate(8 12)"/>
</clipPath>
</defs>
</svg>
