<svg width="18" height="15" viewBox="0 0 18 15" fill="none" xmlns="http://www.w3.org/2000/svg">
<mask id="path-1-inside-1_2802_20818" fill="white">
<path d="M5.66182 14.9998C7.04384 15.0087 8.41384 14.7361 9.69234 14.1979C10.9708 13.6596 12.1324 12.8664 13.1097 11.8642C14.0869 10.862 14.8604 9.67074 15.3853 8.35961C15.9102 7.04847 16.176 5.64351 16.1673 4.22622V3.73117C16.8837 3.1929 17.5037 2.53146 18 1.77616C17.3254 2.07872 16.6116 2.27938 15.8809 2.37189C16.6557 1.89848 17.237 1.15329 17.5173 0.274234C16.7952 0.718468 16.0035 1.03076 15.1773 1.1972C14.6209 0.58919 13.8845 0.186179 13.0823 0.0505278C12.28 -0.0851233 11.4565 0.0541472 10.7392 0.44679C10.0219 0.839434 9.45081 1.46356 9.11422 2.2226C8.77764 2.98164 8.69436 3.83328 8.87727 4.64575C7.40948 4.57187 5.97331 4.18177 4.66229 3.50086C3.35127 2.81994 2.1948 1.86349 1.26818 0.693765C0.800937 1.52542 0.659313 2.50809 0.871985 3.44281C1.08466 4.37752 1.63573 5.19443 2.41364 5.72814C1.83977 5.70545 1.27919 5.54448 0.777273 5.25827V5.30022C0.772173 6.16935 1.05768 7.01402 1.58621 7.69345C2.11474 8.37289 2.85437 8.84604 3.68182 9.03405C3.14807 9.18127 2.58897 9.20421 2.04545 9.10118C2.28501 9.84239 2.74229 10.4895 3.35458 10.9536C3.96688 11.4178 4.70421 11.6764 5.46545 11.6939C4.1639 12.7683 2.54626 13.3597 0.875455 13.372C0.582507 13.3633 0.290248 13.3381 0 13.2965C1.69115 14.4014 3.65662 14.984 5.66182 14.9746"/>
</mask>
<path d="M5.66182 14.9998C7.04384 15.0087 8.41384 14.7361 9.69234 14.1979C10.9708 13.6596 12.1324 12.8664 13.1097 11.8642C14.0869 10.862 14.8604 9.67074 15.3853 8.35961C15.9102 7.04847 16.176 5.64351 16.1673 4.22622V3.73117C16.8837 3.1929 17.5037 2.53146 18 1.77616C17.3254 2.07872 16.6116 2.27938 15.8809 2.37189C16.6557 1.89848 17.237 1.15329 17.5173 0.274234C16.7952 0.718468 16.0035 1.03076 15.1773 1.1972C14.6209 0.58919 13.8845 0.186179 13.0823 0.0505278C12.28 -0.0851233 11.4565 0.0541472 10.7392 0.44679C10.0219 0.839434 9.45081 1.46356 9.11422 2.2226C8.77764 2.98164 8.69436 3.83328 8.87727 4.64575C7.40948 4.57187 5.97331 4.18177 4.66229 3.50086C3.35127 2.81994 2.1948 1.86349 1.26818 0.693765C0.800937 1.52542 0.659313 2.50809 0.871985 3.44281C1.08466 4.37752 1.63573 5.19443 2.41364 5.72814C1.83977 5.70545 1.27919 5.54448 0.777273 5.25827V5.30022C0.772173 6.16935 1.05768 7.01402 1.58621 7.69345C2.11474 8.37289 2.85437 8.84604 3.68182 9.03405C3.14807 9.18127 2.58897 9.20421 2.04545 9.10118C2.28501 9.84239 2.74229 10.4895 3.35458 10.9536C3.96688 11.4178 4.70421 11.6764 5.46545 11.6939C4.1639 12.7683 2.54626 13.3597 0.875455 13.372C0.582507 13.3633 0.290248 13.3381 0 13.2965C1.69115 14.4014 3.65662 14.984 5.66182 14.9746" fill="#1A73E8"/>
<path d="M16.1673 4.22622H15.1673L15.1673 4.23235L16.1673 4.22622ZM16.1673 3.73117L15.5666 2.93169L15.1673 3.23172V3.73117H16.1673ZM18 1.77616L18.8357 2.32527L20.7175 -0.538661L17.5908 0.863731L18 1.77616ZM15.8809 2.37189L15.3595 1.51859L16.0065 3.36397L15.8809 2.37189ZM17.5173 0.274234L18.47 0.578036L19.2888 -1.98985L16.9933 -0.577472L17.5173 0.274234ZM15.1773 1.1972L14.4396 1.87232L14.821 2.28907L15.3748 2.17751L15.1773 1.1972ZM8.87727 4.64575L8.827 5.64449L10.1421 5.71068L9.85285 4.42612L8.87727 4.64575ZM1.26818 0.693765L2.05203 0.0728185L1.12646 -1.09558L0.396355 0.203952L1.26818 0.693765ZM2.41364 5.72814L2.37411 6.72736L5.83729 6.86434L2.97937 4.90356L2.41364 5.72814ZM0.777273 5.25827L1.27263 4.38958L-0.222727 3.53688V5.25827H0.777273ZM0.777273 5.30022L1.77727 5.30609V5.30022H0.777273ZM3.68182 9.03405L3.94771 9.99805L3.90339 8.05891L3.68182 9.03405ZM2.04545 9.10118L2.2317 8.11867L0.575529 7.80472L1.09391 9.4087L2.04545 9.10118ZM5.46545 11.6939L6.10207 12.4651L8.17263 10.7558L5.48842 10.6941L5.46545 11.6939ZM0.875455 13.372L0.845787 14.3716L0.864288 14.3721L0.882797 14.372L0.875455 13.372ZM0 13.2965L0.141912 12.3066L-0.546976 14.1336L0 13.2965ZM5.65537 15.9998C7.17335 16.0096 8.67751 15.7101 10.0804 15.1195L9.30432 13.2762C8.15016 13.7621 6.91433 14.0078 5.66827 13.9998L5.65537 15.9998ZM10.0804 15.1195C11.4832 14.5289 12.756 13.6593 13.8256 12.5623L12.3937 11.166C11.5089 12.0734 10.4585 12.7903 9.30432 13.2762L10.0804 15.1195ZM13.8256 12.5623C14.8952 11.4654 15.7405 10.163 16.3137 8.73125L14.4569 7.98796C13.9803 9.17851 13.2786 10.2585 12.3937 11.166L13.8256 12.5623ZM16.3137 8.73125C16.8868 7.29957 17.1767 5.76628 17.1673 4.22009L15.1673 4.23235C15.1752 5.52075 14.9335 6.79738 14.4569 7.98796L16.3137 8.73125ZM17.1673 4.22622V3.73117H15.1673V4.22622H17.1673ZM16.768 4.53065C17.5774 3.9225 18.2767 3.17611 18.8357 2.32527L17.1643 1.22704C16.7308 1.8868 16.19 2.4633 15.5666 2.93169L16.768 4.53065ZM17.5908 0.863731C17.0059 1.12604 16.3877 1.29975 15.7553 1.37981L16.0065 3.36397C16.8356 3.25902 17.6449 3.0314 18.4092 2.68858L17.5908 0.863731ZM16.4023 3.22519C17.3859 2.6242 18.118 1.68207 18.47 0.578036L16.5645 -0.0295684C16.356 0.624514 15.9255 1.17275 15.3595 1.51859L16.4023 3.22519ZM16.9933 -0.577472C16.371 -0.194649 15.6897 0.0738775 14.9798 0.216896L15.3748 2.17751C16.3172 1.98765 17.2194 1.63159 18.0413 1.12594L16.9933 -0.577472ZM15.915 0.522088C15.2103 -0.247952 14.274 -0.762168 13.249 -0.935476L12.9156 1.03653C13.4951 1.13453 14.0314 1.42633 14.4396 1.87232L15.915 0.522088ZM13.249 -0.935476C12.2238 -1.10882 11.1726 -0.93042 10.2591 -0.430391L11.2194 1.32397C11.7405 1.03871 12.3363 0.938577 12.9156 1.03653L13.249 -0.935476ZM10.2591 -0.430391C9.34608 0.0693763 8.62414 0.860896 8.20007 1.81723L10.0284 2.62797C10.2775 2.06623 10.6978 1.60949 11.2194 1.32397L10.2591 -0.430391ZM8.20007 1.81723C7.77614 2.77324 7.67176 3.84407 7.90169 4.86539L9.85285 4.42612C9.71696 3.8225 9.77913 3.19005 10.0284 2.62797L8.20007 1.81723ZM8.92755 3.64702C7.6038 3.58038 6.3076 3.22856 5.12321 2.61341L4.20137 4.3883C5.63902 5.13498 7.21515 5.56335 8.827 5.64449L8.92755 3.64702ZM5.12321 2.61341C3.93874 1.99823 2.89194 1.13307 2.05203 0.0728185L0.484329 1.31471C1.49767 2.5939 2.76381 3.64166 4.20137 4.3883L5.12321 2.61341ZM0.396355 0.203952C-0.193023 1.253 -0.370488 2.48944 -0.103094 3.66466L1.84706 3.22095C1.68911 2.52674 1.7949 1.79785 2.14001 1.18358L0.396355 0.203952ZM-0.103094 3.66466C0.164378 4.84023 0.858929 5.87421 1.8479 6.55273L2.97937 4.90356C2.41254 4.51466 2.00494 3.91481 1.84706 3.22095L-0.103094 3.66466ZM2.45316 4.72892C2.04051 4.7126 1.63614 4.59686 1.27263 4.38958L0.281918 6.12696C0.922238 6.49209 1.63903 6.69829 2.37411 6.72736L2.45316 4.72892ZM-0.222727 5.25827V5.30022H1.77727V5.25827H-0.222727ZM-0.22271 5.29435C-0.229112 6.38553 0.129142 7.44903 0.796906 8.30745L2.37552 7.07945C1.98622 6.57901 1.77346 5.95317 1.77726 5.30609L-0.22271 5.29435ZM0.796906 8.30745C1.46505 9.16636 2.40399 9.76919 3.46025 10.0092L3.90339 8.05891C3.30474 7.92288 2.76444 7.57941 2.37552 7.07945L0.796906 8.30745ZM3.41592 8.07005C3.02936 8.17667 2.62493 8.19322 2.2317 8.11867L1.8592 10.0837C2.553 10.2152 3.26678 10.1859 3.94771 9.99805L3.41592 8.07005ZM1.09391 9.4087C1.39551 10.3419 1.97259 11.1608 2.75046 11.7505L3.95871 10.1568C3.51198 9.81809 3.1745 9.3429 2.99699 8.79365L1.09391 9.4087ZM2.75046 11.7505C3.52869 12.3405 4.46897 12.6713 5.44249 12.6936L5.48842 10.6941C4.93945 10.6815 4.40507 10.4951 3.95871 10.1568L2.75046 11.7505ZM4.82884 10.9227C3.70257 11.8524 2.30658 12.3615 0.868113 12.372L0.882797 14.372C2.78594 14.358 4.62524 13.6842 6.10207 12.4651L4.82884 10.9227ZM0.905122 12.3724C0.64976 12.3649 0.394975 12.3429 0.141912 12.3066L-0.141912 14.2864C0.185521 14.3333 0.515254 14.3618 0.845787 14.3716L0.905122 12.3724ZM-0.546976 14.1336C1.30684 15.3449 3.46389 15.9849 5.6665 15.9746L5.65714 13.9746C3.84935 13.9831 2.07545 13.458 0.546976 12.4593L-0.546976 14.1336Z" fill="#1A73E8" mask="url(#path-1-inside-1_2802_20818)"/>
</svg>
