<svg width="24" height="24" viewBox="0 0 24 24" fill="none" xmlns="http://www.w3.org/2000/svg">
<path d="M16.1517 12.8338L14.4217 13.4138C13.9417 13.5738 13.5717 13.9438 13.4117 14.4238L12.8317 16.1538C12.3417 17.6438 10.2417 17.6138 9.78165 16.1238L7.83165 9.84379C7.45165 8.59379 8.60165 7.44379 9.83165 7.82379L16.1217 9.77379C17.6117 10.2438 17.6317 12.3438 16.1517 12.8338Z" stroke="#1A73E8" stroke-width="1.5" stroke-linecap="round" stroke-linejoin="round"/>
<path d="M12 22C17.523 22 22 17.523 22 12C22 6.477 17.523 2 12 2C6.477 2 2 6.477 2 12C2 17.523 6.477 22 12 22Z" stroke="#1A73E8" stroke-width="1.5" stroke-linecap="round" stroke-linejoin="round"/>
</svg>
