<svg width="27" height="26" viewBox="0 0 27 26" fill="none" xmlns="http://www.w3.org/2000/svg">
<path d="M18.741 5.50781L20.991 7.75781L19.2758 9.47381L17.0258 7.22381L18.741 5.50781ZM10.5 15.9988H12.75L18.2153 10.5336L15.9653 8.28356L10.5 13.7488V15.9988Z" fill="#10A760"/>
<path d="M18.75 18.25H10.6185C10.599 18.25 10.5788 18.2575 10.5593 18.2575C10.5345 18.2575 10.5098 18.2507 10.4843 18.25H8.25V7.75H13.3853L14.8853 6.25H8.25C7.42275 6.25 6.75 6.922 6.75 7.75V18.25C6.75 19.078 7.42275 19.75 8.25 19.75H18.75C19.1478 19.75 19.5294 19.592 19.8107 19.3107C20.092 19.0294 20.25 18.6478 20.25 18.25V11.749L18.75 13.249V18.25Z" fill="#10A760"/>
</svg>
