<svg width="36" height="36" viewBox="0 0 36 36" fill="none" xmlns="http://www.w3.org/2000/svg">
<rect width="36" height="36" rx="6" fill="#E8F1FD"/>
<g clip-path="url(#clip0_2811_15528)">
<path d="M27.6368 25.8701L23.7679 22.0003C26.6655 18.1308 25.8776 12.6449 22.0081 9.74723C18.1386 6.84961 12.6527 7.63743 9.75505 11.507C6.85739 15.3765 7.64528 20.8624 11.5148 23.76C14.6237 26.088 18.8949 26.089 22.0048 23.7625L25.8754 27.6331C26.3618 28.1195 27.1504 28.1195 27.6368 27.6331C28.1233 27.1467 28.1233 26.3581 27.6368 25.8717V25.8701ZM16.7952 23.0155C13.357 23.0155 10.5697 20.2282 10.5697 16.7899C10.5697 13.3516 13.357 10.5643 16.7952 10.5643C20.2335 10.5643 23.0208 13.3516 23.0208 16.7899C23.0172 20.2267 20.232 23.0118 16.7952 23.0155Z" fill="#1A73E8"/>
</g>
<defs>
<clipPath id="clip0_2811_15528">
<rect width="20" height="20" fill="white" transform="translate(8 8)"/>
</clipPath>
</defs>
</svg>
